<?xml version="1.0" encoding="UTF-8"?>
<svg id="Camada_2" data-name="Camada 2" xmlns="http://www.w3.org/2000/svg" viewBox="0 0 118.4 134.31">
  <defs>
    <style>
      .cls-1, .cls-2, .cls-3, .cls-4 {
        stroke-width: 0px;
      }

      .cls-2 {
        fill: #008b8b;
      }

      .cls-3 {
        fill: #fff;
      }

      .cls-4 {
        fill: #c6c9c8;
      }
    </style>
  </defs>
  <g id="Camada_1-2" data-name="Camada 1">
    <g>
      <polygon class="cls-1" points="118.4 38.19 118.4 102.48 66.84 134.31 66.84 98.03 59.2 102.48 59.2 134.31 0 102.48 0 38.19 56.02 70.66 59.2 72.57 62.38 70.66 118.4 38.19"/>
      <polygon class="cls-4" points="59.2 33.1 30.55 16.55 59.2 0 87.84 16.55 59.2 33.1"/>
      <polygon class="cls-4" points="115.22 31.83 59.2 63.66 3.18 31.83 23.55 20.37 59.2 41.38 94.85 20.37 115.22 31.83"/>
      <path class="cls-3" d="m100.35,70.66c-7.03,0-12.73,5.7-12.73,12.73,0,.87.09,1.71.25,2.52l-21.04,12.12-7.64,4.46v31.83h7.64v-26.1l25.51-14.93c2.18,1.78,4.97,2.84,8,2.84,7.03,0,12.73-5.7,12.73-12.73s-5.7-12.73-12.73-12.73Zm0,17.82c-2.64,0-4.77-2.14-4.77-4.77s2.14-4.77,4.77-4.77,4.77,2.14,4.77,4.77-2.14,4.77-4.77,4.77Z"/>
      <path class="cls-3" d="m37.36,95c0,5.65-3.69,10.45-8.79,12.11v10.74l-7.89-4.19v-6.55c-5.1-1.66-8.79-6.45-8.79-12.11,0-7.03,5.7-12.73,12.73-12.73s12.73,5.7,12.73,12.73Z"/>
      <circle class="cls-2" cx="24.63" cy="95.32" r="4.77"/>
      <circle class="cls-2" cx="100.41" cy="83.65" r="4.79"/>
    </g>
  </g>
</svg>