<?xml version="1.0" encoding="UTF-8"?>
<svg id="Camada_2" data-name="Camada 2" xmlns="http://www.w3.org/2000/svg" viewBox="0 0 119.4 135.39">
  <defs>
    <style>
      .cls-1 {
        fill: #008b8b;
      }

      .cls-1, .cls-2 {
        stroke-width: 0px;
      }

      .cls-3, .cls-4 {
        stroke-linecap: round;
        stroke-linejoin: round;
      }

      .cls-3, .cls-4, .cls-5 {
        stroke: #fff;
      }

      .cls-3, .cls-2 {
        fill: #fff;
      }

      .cls-5 {
        fill: #c6c9c8;
        stroke-miterlimit: 10;
      }
    </style>
  </defs>
  <g id="Camada_1-2" data-name="Camada 1">
    <g>
      <polygon class="cls-4" points="118.9 38.77 118.9 103.06 67.34 134.89 67.34 98.61 59.7 103.06 59.7 134.89 .5 103.06 .5 38.77 56.52 71.23 59.7 73.14 62.88 71.23 118.9 38.77"/>
      <polygon class="cls-5" points="59.7 33.68 31.05 17.13 59.7 .58 88.34 17.13 59.7 33.68"/>
      <polygon class="cls-5" points="115.72 32.41 59.7 64.23 3.68 32.41 24.05 20.95 59.7 41.95 95.35 20.95 115.72 32.41"/>
      <path class="cls-3" d="m100.85,71.23c-7.03,0-12.73,5.7-12.73,12.73,0,.87.09,1.71.25,2.52l-21.04,12.12-7.64,4.46v31.83h7.64v-26.1l25.51-14.93c2.18,1.78,4.97,2.84,8,2.84,7.03,0,12.73-5.7,12.73-12.73s-5.7-12.73-12.73-12.73Zm0,17.82c-2.64,0-4.77-2.14-4.77-4.77s2.14-4.77,4.77-4.77,4.77,2.14,4.77,4.77-2.14,4.77-4.77,4.77Z"/>
      <path class="cls-2" d="m37.86,95.58c0,5.65-3.69,10.45-8.79,12.11v10.74l-7.89-4.19v-6.55c-5.1-1.66-8.79-6.45-8.79-12.11,0-7.03,5.7-12.73,12.73-12.73s12.73,5.7,12.73,12.73Z"/>
      <circle class="cls-1" cx="25.13" cy="95.9" r="4.77"/>
      <circle class="cls-1" cx="100.91" cy="84.23" r="4.79"/>
    </g>
  </g>
</svg>